<svg width="18" height="18" viewBox="0 0 18 18" fill="none" xmlns="http://www.w3.org/2000/svg">
<path fill-rule="evenodd" clip-rule="evenodd" d="M5.06567 3.0256C3.21318 4.28671 2 6.41159 2 8.81666C2 12.6827 5.13401 15.8167 9 15.8167C11.4051 15.8167 13.5299 14.6035 14.7911 12.751C9.68173 12.1925 5.62421 8.13492 5.06567 3.0256ZM16 10.8167C16.866 10.8167 17.6118 11.5799 17.2691 12.3753C15.8898 15.576 12.7066 17.8167 9 17.8167C4.02944 17.8167 0 13.7872 0 8.81666C0 5.11009 2.24067 1.92685 5.4414 0.54758C6.23674 0.204846 7 0.950627 7 1.81667C7 6.78724 11.0294 10.8167 16 10.8167Z" fill="#F4F6FC"/>
</svg>
